0 !COLOUR Black                                                 CODE     0   VALUE #1B2A34   EDGE #808080
0 !COLOUR Blue                                                  CODE     1   VALUE #1E5AA8   EDGE #333333
0 !COLOUR Green                                                 CODE     2   VALUE #00852B   EDGE #333333
0 !COLOUR Dark_Turquoise                                        CODE     3   VALUE #069D9F   EDGE #333333
0 !COLOUR Red                                                   CODE     4   VALUE #B40000   EDGE #333333
0 !COLOUR Dark_Pink                                             CODE     5   VALUE #D3359D   EDGE #333333
0 !COLOUR Brown                                                 CODE     6   VALUE #543324   EDGE #1E1E1E
0 !COLOUR Light_Grey                                            CODE     7   VALUE #8A928D   EDGE #333333
0 !COLOUR Dark_Grey                                             CODE     8   VALUE #545955   EDGE #333333
0 !COLOUR Light_Blue                                            CODE     9   VALUE #97CBD9   EDGE #333333
0 !COLOUR Bright_Green                                          CODE    10   VALUE #58AB41   EDGE #333333
0 !COLOUR Light_Turquoise                                       CODE    11   VALUE #00AAA4   EDGE #333333
0 !COLOUR Salmon                                                CODE    12   VALUE #F06D61   EDGE #333333
0 !COLOUR Pink                                                  CODE    13   VALUE #F6A9BB   EDGE #333333
0 !COLOUR Yellow                                                CODE    14   VALUE #FAC80A   EDGE #333333
0 !COLOUR White                                                 CODE    15   VALUE #F4F4F4   EDGE #333333
0 !COLOUR Light_Green                                           CODE    17   VALUE #ADD9A8   EDGE #333333
0 !COLOUR Light_Yellow                                          CODE    18   VALUE #FFD67F   EDGE #333333
0 !COLOUR Tan                                                   CODE    19   VALUE #D7BA8C   EDGE #333333
0 !COLOUR Light_Violet                                          CODE    20   VALUE #AFBED6   EDGE #333333
0 !COLOUR Purple                                                CODE    22   VALUE #671F81   EDGE #333333
0 !COLOUR Dark_Blue_Violet                                      CODE    23   VALUE #0E3E9A   EDGE #333333
0 !COLOUR Orange                                                CODE    25   VALUE #D67923   EDGE #333333
0 !COLOUR Magenta                                               CODE    26   VALUE #901F76   EDGE #333333
0 !COLOUR Lime                                                  CODE    27   VALUE #A5CA18   EDGE #333333
0 !COLOUR Dark_Tan                                              CODE    28   VALUE #897D62   EDGE #333333
0 !COLOUR Bright_Pink                                           CODE    29   VALUE #FF9ECD   EDGE #333333
0 !COLOUR Medium_Lavender                                       CODE    30   VALUE #A06EB9   EDGE #333333
0 !COLOUR Lavender                                              CODE    31   VALUE #CDA4DE   EDGE #333333
0 !COLOUR Very_Light_Orange                                     CODE    68   VALUE #FDC383   EDGE #333333
0 !COLOUR Bright_Reddish_Lilac                                  CODE    69   VALUE #8A12A8   EDGE #333333
0 !COLOUR Reddish_Brown                                         CODE    70   VALUE #5F3109   EDGE #808080
0 !COLOUR Light_Bluish_Grey                                     CODE    71   VALUE #969696   EDGE #333333
0 !COLOUR Dark_Bluish_Grey                                      CODE    72   VALUE #646464   EDGE #333333
0 !COLOUR Medium_Blue                                           CODE    73   VALUE #7396C8   EDGE #333333
0 !COLOUR Medium_Green                                          CODE    74   VALUE #7FC475   EDGE #333333
0 !COLOUR Light_Pink                                            CODE    77   VALUE #FECCCF   EDGE #333333
0 !COLOUR Light_Nougat                                          CODE    78   VALUE #FFC995   EDGE #333333
0 !COLOUR Medium_Nougat                                         CODE    84   VALUE #AA7D55   EDGE #333333
0 !COLOUR Medium_Lilac                                          CODE    85   VALUE #441A91   EDGE #333333
0 !COLOUR Light_Brown                                           CODE    86   VALUE #7B5D41   EDGE #333333
0 !COLOUR Blue_Violet                                           CODE    89   VALUE #1C58A7   EDGE #333333
0 !COLOUR Nougat                                                CODE    92   VALUE #BB805A   EDGE #333333
0 !COLOUR Light_Salmon                                          CODE   100   VALUE #F9B7A5   EDGE #333333
0 !COLOUR Violet                                                CODE   110   VALUE #26469A   EDGE #333333
0 !COLOUR Medium_Violet                                         CODE   112   VALUE #4861AC   EDGE #333333
0 !COLOUR Medium_Lime                                           CODE   115   VALUE #B7D425   EDGE #333333
0 !COLOUR Aqua                                                  CODE   118   VALUE #9CD6CC   EDGE #333333
0 !COLOUR Light_Lime                                            CODE   120   VALUE #DEEA92   EDGE #333333
0 !COLOUR Light_Orange                                          CODE   121   VALUE #F89A39   EDGE #333333
0 !COLOUR Dark_Salmon                                           CODE   123   VALUE #EE5434   EDGE #333333
0 !COLOUR Spud_Orange                                           CODE   125   VALUE #F9A777   EDGE #333333
0 !COLOUR Dark_Nougat                                           CODE   128   VALUE #AD6140   EDGE #333333
0 !COLOUR Very_Light_Bluish_Grey                                CODE   151   VALUE #C8C8C8   EDGE #333333
0 !COLOUR Dark_Yellow                                           CODE   180   VALUE #DD982E   EDGE #333333
0 !COLOUR Bright_Light_Orange                                   CODE   191   VALUE #FCAC00   EDGE #333333
0 !COLOUR Bright_Light_Blue                                     CODE   212   VALUE #9DC3F7   EDGE #333333
0 !COLOUR Medium_Blue_Violet                                    CODE   213   VALUE #476FB6   EDGE #333333
0 !COLOUR Rust                                                  CODE   216   VALUE #872B17   EDGE #333333
0 !COLOUR Reddish_Lilac                                         CODE   218   VALUE #8E5597   EDGE #333333
0 !COLOUR Lilac                                                 CODE   219   VALUE #564E9D   EDGE #333333
0 !COLOUR Light_Lilac                                           CODE   220   VALUE #9195CA   EDGE #333333
0 !COLOUR Warm_Yellowish_Orange                                 CODE   225   VALUE #FAA964   EDGE #333333
0 !COLOUR Bright_Light_Yellow                                   CODE   226   VALUE #FFEC6C   EDGE #333333
0 !COLOUR Sky_Blue                                              CODE   232   VALUE #77C9D8   EDGE #333333
0 !COLOUR Dark_Blue                                             CODE   272   VALUE #19325A   EDGE #333333
0 !COLOUR Dark_Green                                            CODE   288   VALUE #00451A   EDGE #808080
0 !COLOUR Flamingo_Pink                                         CODE   295   VALUE #FF94C2   EDGE #333333
0 !COLOUR Dark_Brown                                            CODE   308   VALUE #352100   EDGE #808080
0 !COLOUR Maersk_Blue                                           CODE   313   VALUE #ABD9FF   EDGE #333333
0 !COLOUR Dark_Red                                              CODE   320   VALUE #720012   EDGE #333333
0 !COLOUR Dark_Azure                                            CODE   321   VALUE #469BC3   EDGE #333333
0 !COLOUR Medium_Azure                                          CODE   322   VALUE #68C3E2   EDGE #333333
0 !COLOUR Light_Aqua                                            CODE   323   VALUE #D3F2EA   EDGE #333333
0 !COLOUR Yellowish_Green                                       CODE   326   VALUE #E2F99A   EDGE #333333
0 !COLOUR Olive_Green                                           CODE   330   VALUE #77774E   EDGE #333333
0 !COLOUR Sand_Red                                              CODE   335   VALUE #88605E   EDGE #333333
0 !COLOUR Medium_Dark_Pink                                      CODE   351   VALUE #F785B1   EDGE #333333
0 !COLOUR Coral                                                 CODE   353   VALUE #FF6D77   EDGE #333333
0 !COLOUR Earth_Orange                                          CODE   366   VALUE #D86D2C   EDGE #333333
0 !COLOUR Neon_Yellow                                           CODE   368   VALUE #EDFF21   EDGE #333333
0 !COLOUR Medium_Brown                                          CODE   370   VALUE #755945   EDGE #333333
0 !COLOUR Medium_Tan                                            CODE   371   VALUE #CCA373   EDGE #333333
0 !COLOUR Sand_Purple                                           CODE   373   VALUE #75657D   EDGE #333333
0 !COLOUR Sand_Green                                            CODE   378   VALUE #708E7C   EDGE #333333
0 !COLOUR Sand_Blue                                             CODE   379   VALUE #70819A   EDGE #333333
0 !COLOUR Reddish_Orange                                        CODE   402   VALUE #CA4C0B   EDGE #333333
0 !COLOUR Sienna_Brown                                          CODE   422   VALUE #915C3C   EDGE #333333
0 !COLOUR Umber_Brown                                           CODE   423   VALUE #543F33   EDGE #333333
0 !COLOUR Ochre_Yellow                                          CODE   424   VALUE #DD9E47   EDGE #333333
0 !COLOUR Warm_Pink                                             CODE   430   VALUE #F79B9B   EDGE #333333
0 !COLOUR Bright_Blue_Violet                                    CODE   431   VALUE #665EA7   EDGE #333333
0 !COLOUR Fabuland_Brown                                        CODE   450   VALUE #D27744   EDGE #333333
0 !COLOUR Medium_Orange                                         CODE   462   VALUE #F58624   EDGE #333333
0 !COLOUR Dark_Orange                                           CODE   484   VALUE #91501C   EDGE #333333
0 !COLOUR Very_Light_Grey                                       CODE   503   VALUE #BCB4A5   EDGE #333333
0 !COLOUR Fabuland_Red                                          CODE   508   VALUE #C65127   EDGE #333333
0 !COLOUR Fabuland_Orange                                       CODE   509   VALUE #CF8A47   EDGE #333333
0 !COLOUR Fabuland_Lime                                         CODE   510   VALUE #ACE35A   EDGE #333333
0 !COLOUR Lemon                                                 CODE 10015   VALUE #FFF230   EDGE #333333
0 !COLOUR Rose_Pink                                             CODE 10017   VALUE #FF9494   EDGE #333333
0 !COLOUR Yellowish_Dark_Pink                                   CODE 10022   VALUE #D05098   EDGE #333333
0 !COLOUR Trans_Black_IR_Lens                                   CODE    32   VALUE #000000   EDGE #333333   ALPHA 245
0 !COLOUR Trans_Dark_Blue                                       CODE    33   VALUE #0020A0   EDGE #000B38   ALPHA 128
0 !COLOUR Trans_Green                                           CODE    34   VALUE #237841   EDGE #174F2B   ALPHA 128
0 !COLOUR Trans_Bright_Green                                    CODE    35   VALUE #56E646   EDGE #27AF18   ALPHA 128
0 !COLOUR Trans_Red                                             CODE    36   VALUE #C91A09   EDGE #660D05   ALPHA 128
0 !COLOUR Trans_Dark_Pink                                       CODE    37   VALUE #DF6695   EDGE #B9275F   ALPHA 128
0 !COLOUR Trans_Neon_Orange                                     CODE    38   VALUE #FF800D   EDGE #A85100   ALPHA 128
0 !COLOUR Trans_Very_Light_Blue                                 CODE    39   VALUE #C1DFF0   EDGE #6FB4DC   ALPHA 128
0 !COLOUR Trans_Brown                                           CODE    40   VALUE #635F52   EDGE #2A2823   ALPHA 128
0 !COLOUR Trans_Medium_Blue                                     CODE    41   VALUE #559AB7   EDGE #326276   ALPHA 128
0 !COLOUR Trans_Neon_Green                                      CODE    42   VALUE #C0FF00   EDGE #739900   ALPHA 128
0 !COLOUR Trans_Light_Blue                                      CODE    43   VALUE #AEE9EF   EDGE #59D1DE   ALPHA 128
0 !COLOUR Trans_Bright_Reddish_Lilac                            CODE    44   VALUE #96709F   EDGE #5F4365   ALPHA 128
0 !COLOUR Trans_Pink                                            CODE    45   VALUE #FC97AC   EDGE #F9345B   ALPHA 128
0 !COLOUR Trans_Yellow                                          CODE    46   VALUE #F5CD2F   EDGE #B49208   ALPHA 128
0 !COLOUR Trans_Clear                                           CODE    47   VALUE #FCFCFC   EDGE #C9C9C9   ALPHA 128
0 !COLOUR Trans_Purple                                          CODE    52   VALUE #A5A5CB   EDGE #6464A6   ALPHA 128
0 !COLOUR Trans_Neon_Yellow                                     CODE    54   VALUE #DAB000   EDGE #755E00   ALPHA 128
0 !COLOUR Trans_Orange                                          CODE    57   VALUE #F08F1C   EDGE #9E5C0A   ALPHA 128
0 !COLOUR Trans_Neon_Red                                        CODE   158   VALUE #F18EBB   EDGE #E63384   ALPHA 128
0 !COLOUR Trans_Bright_Light_Green                              CODE   227  VALUE #B5D96C    EDGE #86B22E   ALPHA 128
0 !COLOUR Trans_Bright_Light_Orange                             CODE   231  VALUE #FCB76D    EDGE #FA860A   ALPHA 128
0 !COLOUR Trans_Fire_Yellow                                     CODE   234  VALUE #FBE890    EDGE #F7D22B   ALPHA 128
0 !COLOUR Trans_Reddish_Lilac                                   CODE   284  VALUE #C281A5    EDGE #944771   ALPHA 128
0 !COLOUR Trans_Light_Green                                     CODE   285  VALUE #7DC291    EDGE #46955D   ALPHA 128
0 !COLOUR Trans_Light_Blue_Violet                               CODE   293  VALUE #6BABE4    EDGE #247BC6   ALPHA 128
0 !COLOUR Trans_Black                                           CODE 10375  VALUE #212121    EDGE #545454   ALPHA 128
0 !COLOUR Trans_White                                           CODE 11015  VALUE #F4F4F4    EDGE #C1C1C1   ALPHA 174
0 !COLOUR Trans_Tan                                             CODE 11019  VALUE #D7BA8C    EDGE #BC8D41   ALPHA 128
0 !COLOUR Chrome_Antique_Brass                                  CODE  60   VALUE #645A4C   EDGE #665B4D                               CHROME
0 !COLOUR Chrome_Blue                                           CODE  61   VALUE #6C96BF   EDGE #3D638A                               CHROME
0 !COLOUR Chrome_Green                                          CODE  62   VALUE #3CB371   EDGE #226741                               CHROME
0 !COLOUR Chrome_Pink                                           CODE  63   VALUE #AA4D8E   EDGE #632C52                               CHROME
0 !COLOUR Chrome_Black                                          CODE  64   VALUE #1B2A34   EDGE #3D5F76                               CHROME
0 !COLOUR Chrome_Gold                                           CODE 334   VALUE #DFC176   EDGE #C2982E                               CHROME
0 !COLOUR Chrome_Silver                                         CODE 383   VALUE #CECECE   EDGE #9C9C9C                               CHROME
0 !COLOUR Pearl_Black                                           CODE  83   VALUE #0A1327   EDGE #333333                               PEARLESCENT
0 !COLOUR Copper                                                CODE 134   VALUE #764D3B   EDGE #333333                               PEARLESCENT
0 !COLOUR Pearl_Light_Grey                                      CODE 135   VALUE #A0A0A0   EDGE #333333                               PEARLESCENT
0 !COLOUR Metallic_Blue                                         CODE 137   VALUE #5B7590   EDGE #333333                               PEARLESCENT
0 !COLOUR Pearl_Light_Gold                                      CODE 142   VALUE #DEAC66   EDGE #333333                               PEARLESCENT
0 !COLOUR Pearl_Dark_Gold                                       CODE 147   VALUE #83724F   EDGE #333333                               PEARLESCENT
0 !COLOUR Pearl_Dark_Grey                                       CODE 148   VALUE #484D48   EDGE #333333                               PEARLESCENT
0 !COLOUR Pearl_Very_Light_Grey                                 CODE 150   VALUE #989B99   EDGE #333333                               PEARLESCENT
0 !COLOUR Pearl_Red                                             CODE 176   VALUE #945148   EDGE #333333                               PEARLESCENT
0 !COLOUR Pearl_Yellow                                          CODE 178   VALUE #AB673A   EDGE #333333                               PEARLESCENT
0 !COLOUR Pearl_Silver                                          CODE 179   VALUE #898788   EDGE #333333                               PEARLESCENT
0 !COLOUR Pearl_White                                           CODE 183   VALUE #F6F2DF   EDGE #333333                               PEARLESCENT
0 !COLOUR Metallic_Bright_Red                                   CODE 184   VALUE #D60026   EDGE #333333                               PEARLESCENT
0 !COLOUR Metallic_Bright_Blue                                  CODE 185   VALUE #0059A3   EDGE #333333                               PEARLESCENT
0 !COLOUR Metallic_Dark_Green                                   CODE 186   VALUE #008E3C   EDGE #333333                               PEARLESCENT
0 !COLOUR Pearl_Brown                                           CODE 187   VALUE #57392C   EDGE #333333                               PEARLESCENT
0 !COLOUR Reddish_Gold                                          CODE 189   VALUE #AC8247   EDGE #333333                               PEARLESCENT
0 !COLOUR Lemon_Metallic                                        CODE 200   VALUE #708224   EDGE #333333                               PEARLESCENT
0 !COLOUR Cool_Silver                                           CODE 296   VALUE #ADADAD   EDGE #333333                               PEARLESCENT
0 !COLOUR Pearl_Gold                                            CODE 297   VALUE #AA7F2E   EDGE #333333                               PEARLESCENT
0 !COLOUR Flat_Silver                                           CODE 315   VALUE #8C8C8C   EDGE #333333                               PEARLESCENT
0 !COLOUR Titanium_Metallic                                     CODE 316   VALUE #3E3C39   EDGE #333333                               PEARLESCENT
0 !COLOUR Conductive_Black                                      CODE 342   VALUE #3E3C39   EDGE #333333                               PEARLESCENT
0 !COLOUR Reddish_Copper                                        CODE 346   VALUE #803D07   EDGE #333333                               PEARLESCENT
0 !COLOUR Metallic_Silver                                       CODE    80   VALUE #767676   EDGE #333333                               METAL
0 !COLOUR Metallic_Green                                        CODE    81   VALUE #C2C06F   EDGE #333333                               METAL
0 !COLOUR Metallic_Gold                                         CODE    82   VALUE #DBAC34   EDGE #333333                               METAL
0 !COLOUR Metallic_Dark_Grey                                    CODE    87   VALUE #3E3C39   EDGE #333333                               METAL
0 !COLOUR Metallic_Copper                                       CODE   300   VALUE #C27F53   EDGE #333333                               METAL
0 !COLOUR Metallic_Light_Blue                                   CODE 10045   VALUE #97CBD9   EDGE #333333                               METAL
0 !COLOUR Metallic_Pink                                         CODE 10046   VALUE #AD659A   EDGE #333333                               METAL
0 !COLOUR Metallic_Light_Pink                                   CODE 10049   VALUE #FECCCF   EDGE #333333                               METAL
0 !COLOUR Fluorescent_Red_Ink                                   CODE   332   VALUE #D06D4F   EDGE #333333
0 !COLOUR Fluorescent_Green_Ink                                 CODE   333   VALUE #DBEA7A   EDGE #333333
0 !COLOUR Glow_In_Dark_Opaque                                   CODE    21   VALUE #E0FFB0   EDGE #B8FF4D   ALPHA 245   LUMINANCE 15
0 !COLOUR Milky_White                                           CODE    79   VALUE #EEEEEE   EDGE #BABABA   ALPHA 240
0 !COLOUR Glow_In_Dark_Trans                                    CODE   294   VALUE #BDC6AD   EDGE #8D9D72   ALPHA 200   LUMINANCE 15
0 !COLOUR Glow_In_Dark_White                                    CODE   329   VALUE #F5F3D7   EDGE #E0DA85   ALPHA 245   LUMINANCE 15
0 !COLOUR Glitter_Trans_Dark_Pink                               CODE   114   VALUE #DF6695   EDGE #B9275F   ALPHA 128                   MATERIAL GLITTER VALUE #B92790 FRACTION 0.17 VFRACTION 0.2 SIZE 1
0 !COLOUR Glitter_Trans_Clear                                   CODE   117   VALUE #EEEEEE   EDGE #BABABA   ALPHA 128                   MATERIAL GLITTER VALUE #FFFFFF FRACTION 0.08 VFRACTION 0.1 SIZE 1
0 !COLOUR Glitter_Trans_Purple                                  CODE   129   VALUE #640061   EDGE #000000   ALPHA 128                   MATERIAL GLITTER VALUE #8F00CC FRACTION 0.03 VFRACTION 0.4 SIZE 1
0 !COLOUR Glitter_Trans_Light_Blue                              CODE   302   VALUE #AEE9EF   EDGE #59D1DE   ALPHA 128                   MATERIAL GLITTER VALUE #59DEBF FRACTION 0.17 VFRACTION 0.2 SIZE 1
0 !COLOUR Glitter_Trans_Neon_Green                              CODE   339   VALUE #C0FF00   EDGE #739900   ALPHA 128                   MATERIAL GLITTER VALUE #998C00 FRACTION 0.17 VFRACTION 0.2 SIZE 1 
0 !COLOUR Glitter_Trans_Orange                                  CODE   341   VALUE #F08F1C   EDGE #9E5C0A   ALPHA 128                   MATERIAL GLITTER VALUE #9E2A0A FRACTION 0.17 VFRACTION 0.2 SIZE 1
0 !COLOUR Glitter_Trans_Bright_Green                            CODE 10351   VALUE #56E646   EDGE #27AF18   ALPHA 128                   MATERIAL GLITTER VALUE #59AF18 FRACTION 0.17 VFRACTION 0.2 SIZE 1
0 !COLOUR Opal_Trans_Clear                                      CODE   360   VALUE #FCFCFC   EDGE #C9C9C9   ALPHA 240   LUMINANCE 5     MATERIAL GLITTER VALUE #FFFFFF FRACTION 0.8 VFRACTION 0.6 MINSIZE 0.02 MAXSIZE 0.1
0 !COLOUR Opal_Trans_Light_Blue                                 CODE   362   VALUE #AEE9EF   EDGE #59D1DE   ALPHA 200   LUMINANCE 5     MATERIAL GLITTER VALUE #59DEBF FRACTION 0.8 VFRACTION 0.6 MINSIZE 0.02 MAXSIZE 0.1
0 !COLOUR Opal_Trans_Black                                      CODE   363   VALUE #635F52   EDGE #2A2823   ALPHA 200   LUMINANCE 5     MATERIAL GLITTER VALUE #7781C9 FRACTION 0.8 VFRACTION 0.6 MINSIZE 0.02 MAXSIZE 0.1
0 !COLOUR Opal_Trans_Dark_Pink                                  CODE   364   VALUE #DF6695   EDGE #B9275F   ALPHA 200   LUMINANCE 5     MATERIAL GLITTER VALUE #B92790 FRACTION 0.8 VFRACTION 0.6 MINSIZE 0.02 MAXSIZE 0.1
0 !COLOUR Opal_Trans_Purple                                     CODE   365   VALUE #671F81   EDGE #441456   ALPHA 200   LUMINANCE 5     MATERIAL GLITTER VALUE #2F1456 FRACTION 0.8 VFRACTION 0.6 MINSIZE 0.02 MAXSIZE 0.1
0 !COLOUR Opal_Trans_Bright_Green                               CODE   367   VALUE #56E646   EDGE #27AF18   ALPHA 200   LUMINANCE 5     MATERIAL GLITTER VALUE #0B270B FRACTION 0.8 VFRACTION 0.6 MINSIZE 0.02 MAXSIZE 0.1
0 !COLOUR Opal_Trans_Yellow                                     CODE   376   VALUE #F5CD2F   EDGE #B49208   ALPHA 200   LUMINANCE 5     MATERIAL GLITTER VALUE #B45908 FRACTION 0.8 VFRACTION 0.6 MINSIZE 0.02 MAXSIZE 0.1
0 !COLOUR Opal_Trans_Dark_Blue                                  CODE 10366   VALUE #0020A0   EDGE #000B38   ALPHA 200   LUMINANCE 5     MATERIAL GLITTER VALUE #001D38 FRACTION 0.8 VFRACTION 0.6 MINSIZE 0.02 MAXSIZE 0.1
0 !COLOUR Speckle_Black_Copper                                  CODE  75     VALUE #000000   EDGE #AB6038                               MATERIAL SPECKLE VALUE #AB6038 FRACTION 0.4 MINSIZE 1 MAXSIZE 3
0 !COLOUR Speckle_Dark_Bluish_Grey_Silver                       CODE  76     VALUE #635F61   EDGE #898788                               MATERIAL SPECKLE VALUE #898788 FRACTION 0.4 MINSIZE 1 MAXSIZE 3
0 !COLOUR Speckle_Black_Silver                                  CODE 132     VALUE #000000   EDGE #898788                               MATERIAL SPECKLE VALUE #898788 FRACTION 0.4 MINSIZE 1 MAXSIZE 3
0 !COLOUR Speckle_Black_Gold                                    CODE 133     VALUE #000000   EDGE #DBAC34                               MATERIAL SPECKLE VALUE #DBAC34 FRACTION 0.4 MINSIZE 1 MAXSIZE 3
0 !COLOUR Modulex_Clear                                         CODE 30000   VALUE #FCFCFC   EDGE #C9C9C9      ALPHA 128
0 !COLOUR Modulex_White                                         CODE 30001   VALUE #F4F4F4   EDGE #333333
0 !COLOUR Modulex_Light_Grey                                    CODE 30002   VALUE #8A928D   EDGE #333333
0 !COLOUR Modulex_Black                                         CODE 30003   VALUE #34434D   EDGE #333333
0 !COLOUR Modulex_Terracotta                                    CODE 30004   VALUE #D27744   EDGE #333333
0 !COLOUR Modulex_Buff                                          CODE 30005   VALUE #D7BA8C   EDGE #333333
0 !COLOUR Modulex_Ochre_Yellow                                  CODE 30006   VALUE #FED557   EDGE #333333
0 !COLOUR Modulex_Olive_Green                                   CODE 30007   VALUE #7C9051   EDGE #333333
0 !COLOUR Modulex_Teal_Blue                                     CODE 30008   VALUE #467083   EDGE #333333
0 !COLOUR Modulex_Brown                                         CODE 30009   VALUE #907450   EDGE #333333
0 !COLOUR Modulex_Strong_Red                                    CODE 30010   VALUE #B40000   EDGE #333333
0 !COLOUR Modulex_Pastel_Blue                                   CODE 30011   VALUE #ABD9FF   EDGE #333333
0 !COLOUR Modulex_Orange                                        CODE 30012   VALUE #D86D2C   EDGE #333333
0 !COLOUR Modulex_Red                                           CODE 30013   VALUE #C65127   EDGE #333333
0 !COLOUR Modulex_Pastel_Green                                  CODE 30014   VALUE #78FC78   EDGE #333333
0 !COLOUR Modulex_Lemon                                         CODE 30015   VALUE #FFF230   EDGE #333333
0 !COLOUR Modulex_Pink                                          CODE 30016   VALUE #F785B1   EDGE #333333
0 !COLOUR Modulex_Light_Bluish_Grey                             CODE 30032   VALUE #AFB5C7   EDGE #333333
0 !COLOUR Modulex_Pink_Red                                      CODE 30033   VALUE #F45C40   EDGE #333333
0 !COLOUR Modulex_Aqua_Green                                    CODE 30034   VALUE #27867E   EDGE #333333
0 !COLOUR Modulex_Light_Yellow                                  CODE 30035   VALUE #FFE371   EDGE #333333
0 !COLOUR Modulex_Violet                                        CODE 30037   VALUE #BD7D85   EDGE #333333
0 !COLOUR Modulex_Medium_Blue                                   CODE 30038   VALUE #61AFFF   EDGE #333333
0 !COLOUR Modulex_Light_Orange                                  CODE 30039   VALUE #F7AD63   EDGE #333333
0 !COLOUR Modulex_Charcoal_Grey                                 CODE 30040   VALUE #595D60   EDGE #333333
0 !COLOUR Modulex_Dark_Brown                                    CODE 30054   VALUE #330000   EDGE #808080
0 !COLOUR Modulex_Foil_White                                    CODE 30080   VALUE #F4F4F4   EDGE #333333 
0 !COLOUR Modulex_Foil_Black                                    CODE 30081   VALUE #34434D   EDGE #333333 
0 !COLOUR Modulex_Foil_Dark_Grey                                CODE 30082   VALUE #595D60   EDGE #333333 
0 !COLOUR Modulex_Foil_Light_Grey                               CODE 30083   VALUE #9C9C9C   EDGE #333333 
0 !COLOUR Modulex_Foil_Dark_Green                               CODE 30084   VALUE #006400   EDGE #808080 
0 !COLOUR Modulex_Foil_Light_Green                              CODE 30085   VALUE #7DB538   EDGE #333333 
0 !COLOUR Modulex_Foil_Dark_Blue                                CODE 30086   VALUE #0057A6   EDGE #333333 
0 !COLOUR Modulex_Foil_Light_Blue                               CODE 30087   VALUE #68AECE   EDGE #333333 
0 !COLOUR Modulex_Foil_Violet                                   CODE 30088   VALUE #4B0082   EDGE #333333 
0 !COLOUR Modulex_Foil_Dark_Red                                 CODE 30089   VALUE #8B0000   EDGE #333333 
0 !COLOUR Modulex_Foil_Yellow                                   CODE 30090   VALUE #FED557   EDGE #333333 
0 !COLOUR Modulex_Foil_Orange                                   CODE 30091   VALUE #F7AD63   EDGE #333333
0 !COLOUR Modulex_Dark_Grey                                     CODE 31000    VALUE #6B5A5A   EDGE #333333
0 !COLOUR Modulex_Blue                                          CODE 31001    VALUE #0057A6   EDGE #333333
0 !COLOUR Modulex_Very_Light_Grey                               CODE 31002    VALUE #D9D5CC   EDGE #333333
0 !COLOUR Rubber_Yellow                                         CODE    65 VALUE #FAC80A   EDGE #333333                               RUBBER
0 !COLOUR Rubber_Black                                          CODE   256 VALUE #1B2A34   EDGE #808080                               RUBBER
0 !COLOUR Rubber_Blue                                           CODE   273 VALUE #1E5AA8   EDGE #333333                               RUBBER
0 !COLOUR Rubber_Red                                            CODE   324 VALUE #B40000   EDGE #333333                               RUBBER
0 !COLOUR Rubber_Orange                                         CODE   350 VALUE #D67923   EDGE #333333                               RUBBER
0 !COLOUR Rubber_Light_Grey                                     CODE   375 VALUE #8A928D   EDGE #333333                               RUBBER
0 !COLOUR Rubber_Dark_Blue                                      CODE   406 VALUE #19325A   EDGE #333333                               RUBBER
0 !COLOUR Rubber_Purple                                         CODE   449 VALUE #671F81   EDGE #333333                               RUBBER
0 !COLOUR Rubber_Lime                                           CODE   490 VALUE #A5CA18   EDGE #333333                               RUBBER
0 !COLOUR Rubber_Light_Bluish_Grey                              CODE   496 VALUE #969696   EDGE #333333                               RUBBER
0 !COLOUR Rubber_Flat_Silver                                    CODE   504 VALUE #898788   EDGE #333333                               RUBBER
0 !COLOUR Rubber_White                                          CODE   511 VALUE #F4F4F4   EDGE #333333                               RUBBER
0 !COLOUR Rubber_Green                                          CODE 10002 VALUE #00852B   EDGE #333333                               RUBBER
0 !COLOUR Rubber_Dark_Turquoise                                 CODE 10003 VALUE #069D9F   EDGE #333333                               RUBBER
0 !COLOUR Rubber_Dark_Pink                                      CODE 10005 VALUE #D3359D   EDGE #333333                               RUBBER
0 !COLOUR Rubber_Dark_Grey                                      CODE 10008 VALUE #545955   EDGE #333333                               RUBBER
0 !COLOUR Rubber_Bright_Green                                   CODE 10010 VALUE #58AB41   EDGE #333333                               RUBBER
0 !COLOUR Rubber_Tan                                            CODE 10019 VALUE #D7BA8C   EDGE #333333                               RUBBER
0 !COLOUR Rubber_Magenta                                        CODE 10026 VALUE #901F76   EDGE #333333                               RUBBER
0 !COLOUR Rubber_Dark_Tan                                       CODE 10028 VALUE #897D62   EDGE #333333                               RUBBER
0 !COLOUR Rubber_Bright_Pink                                    CODE 10029 VALUE #FF9ECD   EDGE #333333                               RUBBER
0 !COLOUR Rubber_Medium_Lavender                                CODE 10030 VALUE #A06EB9   EDGE #333333                               RUBBER
0 !COLOUR Rubber_Lavender                                       CODE 10031 VALUE #CDA4DE   EDGE #333333                               RUBBER
0 !COLOUR Rubber_Reddish_Brown                                  CODE 10070 VALUE #5F3109   EDGE #808080                               RUBBER
0 !COLOUR Rubber_Dark_Bluish_Grey                               CODE 10072 VALUE #646464   EDGE #333333                               RUBBER
0 !COLOUR Rubber_Medium_Blue                                    CODE 10073 VALUE #7396C8   EDGE #333333                               RUBBER
0 !COLOUR Rubber_Light_Nougat                                   CODE 10078 VALUE #FFC995   EDGE #333333                               RUBBER
0 !COLOUR Rubber_Medium_Nougat                                  CODE 10084 VALUE #AA7D55   EDGE #333333                               RUBBER
0 !COLOUR Rubber_Medium_Lilac                                   CODE 10085 VALUE #441A91   EDGE #333333                               RUBBER
0 !COLOUR Rubber_Nougat                                         CODE 10092 VALUE #BB805A   EDGE #333333                               RUBBER
0 !COLOUR Rubber_Pearl_Light_Grey                               CODE 10135 VALUE #A0A0A0   EDGE #333333                               RUBBER
0 !COLOUR Rubber_Metallic_Blue                                  CODE 10137 VALUE #5B7590   EDGE #333333                               RUBBER
0 !COLOUR Rubber_Pearl_Dark_Gold                                CODE 10147 VALUE #83724F   EDGE #333333                               RUBBER
0 !COLOUR Rubber_Pearl_Dark_Grey                                CODE 10148 VALUE #484D48   EDGE #333333                               RUBBER
0 !COLOUR Rubber_Pearl_Very_Light_Grey                          CODE 10150 VALUE #989B99   EDGE #333333                               RUBBER
0 !COLOUR Rubber_Very_Light_Bluish_Grey                         CODE 10151 VALUE #C8C8C8   EDGE #333333                               RUBBER
0 !COLOUR Rubber_Reddish_Gold                                   CODE 10189 VALUE #AC8247   EDGE #333333                               RUBBER
0 !COLOUR Rubber_Bright_Light_Orange                            CODE 10191 VALUE #FCAC00   EDGE #333333                               RUBBER
0 !COLOUR Rubber_Lemon_Metallic                                 CODE 10200 VALUE #708224   EDGE #333333                               RUBBER
0 !COLOUR Rubber_Bright_Light_Blue                              CODE 10212 VALUE #9DC3F7   EDGE #333333                               RUBBER
0 !COLOUR Rubber_Bright_Light_Yellow                            CODE 10226 VALUE #FFEC6C   EDGE #333333                               RUBBER
0 !COLOUR Rubber_Dark_Green                                     CODE 10288 VALUE #00451A   EDGE #808080                               RUBBER
0 !COLOUR Rubber_Pearl_Gold                                     CODE 10297 VALUE #AA7F2E   EDGE #333333                               RUBBER
0 !COLOUR Rubber_Dark_Brown                                     CODE 10308 VALUE #352100   EDGE #808080                               RUBBER
0 !COLOUR Rubber_Dark_Red                                       CODE 10320 VALUE #720012   EDGE #333333                               RUBBER
0 !COLOUR Rubber_Dark_Azure                                     CODE 10321 VALUE #469BC3   EDGE #333333                               RUBBER
0 !COLOUR Rubber_Medium_Azure                                   CODE 10322 VALUE #68C3E2   EDGE #333333                               RUBBER
0 !COLOUR Rubber_Light_Aqua                                     CODE 10323 VALUE #D3F2EA   EDGE #333333                               RUBBER
0 !COLOUR Rubber_Yellowish_Green                                CODE 10326 VALUE #E2F99A   EDGE #333333                               RUBBER
0 !COLOUR Rubber_Olive_Green                                    CODE 10330 VALUE #77774E   EDGE #333333                               RUBBER
0 !COLOUR Rubber_Sand_Green                                     CODE 10378 VALUE #708E7C   EDGE #333333                               RUBBER
0 !COLOUR Rubber_Dark_Orange                                    CODE 10484 VALUE #91501C   EDGE #333333                               RUBBER
0 !COLOUR Rubber_Trans_Yellow                                   CODE 66    VALUE #F5CD2F   EDGE #B49208   ALPHA 128                   RUBBER
0 !COLOUR Rubber_Trans_Clear                                    CODE 67    VALUE #FCFCFC   EDGE #C9C9C9   ALPHA 128                   RUBBER
0 !COLOUR Rubber_Trans_Bright_Green                             CODE 10035 VALUE #56E646   EDGE #27AF18   ALPHA 128                   RUBBER
0 !COLOUR Rubber_Trans_Red                                      CODE 10036 VALUE #C91A09   EDGE #660D05   ALPHA 128                   RUBBER
0 !COLOUR Rubber_Trans_Light_Blue                               CODE 10043 VALUE #AEE9EF   EDGE #59D1DE   ALPHA 128                   RUBBER
0 !COLOUR Rubber_Trans_Orange                                   CODE 10057 VALUE #F08F1C   EDGE #9E5C0A   ALPHA 128                   RUBBER
0 !COLOUR Rubber_Milky_White                                    CODE 10079 VALUE #EEEEEE   EDGE #BABABA   ALPHA 240                   RUBBER
0 !COLOUR Canvas_Black                                          CODE 20000 VALUE #1B2A34   EDGE #808080                               MATERIAL FABRIC CANVAS
0 !COLOUR Canvas_Blue                                           CODE 20001 VALUE #1E5AA8   EDGE #333333                               MATERIAL FABRIC CANVAS
0 !COLOUR Canvas_Green                                          CODE 20002 VALUE #00852B   EDGE #333333                               MATERIAL FABRIC CANVAS
0 !COLOUR Canvas_Red                                            CODE 20004 VALUE #B40000   EDGE #333333                               MATERIAL FABRIC CANVAS
0 !COLOUR Canvas_Brown                                          CODE 20006 VALUE #543324   EDGE #1E1E1E                               MATERIAL FABRIC CANVAS
0 !COLOUR Canvas_Light_Grey                                     CODE 20007 VALUE #8A928D   EDGE #333333                               MATERIAL FABRIC CANVAS
0 !COLOUR Canvas_Bright_Green                                   CODE 20010 VALUE #58AB41   EDGE #333333                               MATERIAL FABRIC CANVAS
0 !COLOUR Canvas_Yellow                                         CODE 20014 VALUE #FAC80A   EDGE #333333                               MATERIAL FABRIC CANVAS
0 !COLOUR Canvas_White                                          CODE 20015 VALUE #F4F4F4   EDGE #333333                               MATERIAL FABRIC CANVAS
0 !COLOUR Canvas_Tan                                            CODE 20019 VALUE #D7BA8C   EDGE #333333                               MATERIAL FABRIC CANVAS
0 !COLOUR Canvas_Purple                                         CODE 20022 VALUE #671F81   EDGE #333333                               MATERIAL FABRIC CANVAS
0 !COLOUR Canvas_Dark_Tan                                       CODE 20028 VALUE #897D62   EDGE #333333                               MATERIAL FABRIC CANVAS
0 !COLOUR Canvas_Reddish_Brown                                  CODE 20070 VALUE #5F3109   EDGE #808080                               MATERIAL FABRIC CANVAS
0 !COLOUR Canvas_Light_Bluish_Grey                              CODE 20071 VALUE #969696   EDGE #333333                               MATERIAL FABRIC CANVAS
0 !COLOUR Canvas_Dark_Bluish_Grey                               CODE 20072 VALUE #646464   EDGE #333333                               MATERIAL FABRIC CANVAS
0 !COLOUR Canvas_Light_Brown                                    CODE 20086 VALUE #7B5D41   EDGE #333333                               MATERIAL FABRIC CANVAS
0 !COLOUR Canvas_Dark_Green                                     CODE 20288 VALUE #00451A   EDGE #808080                               MATERIAL FABRIC CANVAS
0 !COLOUR Canvas_Dark_Red                                       CODE 20320 VALUE #720012   EDGE #333333                               MATERIAL FABRIC CANVAS
0 !COLOUR Canvas_Sand_Red                                       CODE 20335 VALUE #88605E   EDGE #333333                               MATERIAL FABRIC CANVAS
0 !COLOUR Canvas_Cream                                          CODE 20500 VALUE #F8F3E4   EDGE #333333                               MATERIAL FABRIC CANVAS
0 !COLOUR Obsolete_Light_Orange_Brown                           CODE  507  VALUE #FA9C1C   EDGE #333333
0 !COLOUR Main_Colour                                           CODE  16   VALUE #FFFF80   EDGE #333333
0 !COLOUR Edge_Colour                                           CODE  24   VALUE #7F7F7F   EDGE #333333
0 !COLOUR Magnet                                                CODE 493   VALUE #656761   EDGE #333333                               METAL
0 !COLOUR Electric_Contact_Alloy                                CODE 494   VALUE #D0D0D0   EDGE #333333                               METAL
0 !COLOUR Electric_Contact_Copper                               CODE 495   VALUE #AE7A59   EDGE #333333                               METAL
0 !COLOUR Trans_Sticker                                         CODE 10047 VALUE #FFFFFF   EDGE #FFFFFF   ALPHA 16
