0 Ride - Dragon (brick-built, real Lego dragon head)
0 Name: dragon.ldr
0 // legs
1 320 -30 -24 -50 1 0 0 0 1 0 0 0 1 3003.dat
1 320 -30 -48 -50 1 0 0 0 1 0 0 0 1 3003.dat
1 320 -30 -24 50 1 0 0 0 1 0 0 0 1 3003.dat
1 320 -30 -48 50 1 0 0 0 1 0 0 0 1 3003.dat
1 320 30 -24 -50 1 0 0 0 1 0 0 0 1 3003.dat
1 320 30 -48 -50 1 0 0 0 1 0 0 0 1 3003.dat
1 320 30 -24 50 1 0 0 0 1 0 0 0 1 3003.dat
1 320 30 -48 50 1 0 0 0 1 0 0 0 1 3003.dat
0 // body: orange belly, dark red back, plates on top
1 25 0 -72 -60 1 0 0 0 1 0 0 0 1 3001.dat
1 320 0 -96 -60 1 0 0 0 1 0 0 0 1 3001.dat
1 320 0 -104 -60 1 0 0 0 1 0 0 0 1 3020.dat
1 25 0 -72 -20 1 0 0 0 1 0 0 0 1 3001.dat
1 320 0 -96 -20 1 0 0 0 1 0 0 0 1 3001.dat
1 320 0 -104 -20 1 0 0 0 1 0 0 0 1 3020.dat
1 25 0 -72 20 1 0 0 0 1 0 0 0 1 3001.dat
1 320 0 -96 20 1 0 0 0 1 0 0 0 1 3001.dat
1 320 0 -104 20 1 0 0 0 1 0 0 0 1 3020.dat
1 25 0 -72 60 1 0 0 0 1 0 0 0 1 3001.dat
1 320 0 -96 60 1 0 0 0 1 0 0 0 1 3001.dat
1 320 0 -104 60 1 0 0 0 1 0 0 0 1 3020.dat
0 // spine spikes
1 297 10 -128 -70 1 0 0 0 1 0 0 0 1 4589.dat
1 297 10 -128 -30 1 0 0 0 1 0 0 0 1 4589.dat
1 297 10 -128 10 1 0 0 0 1 0 0 0 1 4589.dat
1 297 10 -128 50 1 0 0 0 1 0 0 0 1 4589.dat
0 // neck
1 320 0 -96 -100 1 0 0 0 1 0 0 0 1 3003.dat
1 320 0 -120 -100 1 0 0 0 1 0 0 0 1 3003.dat
1 320 0 -144 -120 1 0 0 0 1 0 0 0 1 3003.dat
1 320 0 -168 -120 1 0 0 0 1 0 0 0 1 3003.dat
1 320 0 -192 -120 1 0 0 0 1 0 0 0 1 3003.dat
1 320 0 -216 -140 1 0 0 0 1 0 0 0 1 3003.dat
0 // head
1 320 0 -222 -165 1 0 0 0 1 0 0 0 1 24196p01.dat
1 320 0 -222 -165 1 0 0 0 1 0 0 0 1 24199.dat
0 // tail (tapers down to the ground)
1 320 0 -72 100 1 0 0 0 1 0 0 0 1 3003.dat
1 320 0 -72 130 0 0 1 0 1 0 -1 0 0 3004.dat
1 320 0 -48 150 0 0 1 0 1 0 -1 0 0 3004.dat
1 25 0 -48 170 0 0 1 0 1 0 -1 0 0 3040b.dat
0 // wings
1 25 117 -196 -10 0 0.766 0.643 0 0.643 -0.766 -1 0 0 30355.dat
1 25 -117 -196 -10 0 -0.766 -0.643 0 0.643 -0.766 1 0 0 30356.dat
