0 Guardian - Level 3 Sentinel
0 Name: guardian_L3.ldr
0 Author: Solo Leveling (generated by tools/build_ldr.py)
0 // head
1 14 0 -24 0 1 0 0 0 1 0 0 0 1 3626bp05.dat
0 // hair / helmet
1 179 0 -24 0 1 0 0 0 1 0 0 0 1 3896.dat
0 // torso
1 288 0 0 0 1 0 0 0 1 0 0 0 1 76382p0049.dat
0 // legs
1 288 0 32 0 1 0 0 0 1 0 0 0 1 3815c01.dat
0 // gear: neck
1 179 0 0 0 1 0 0 0 1 0 0 0 1 11097.dat
0 // gear: right hand
1 179 -24.89 33.73 -9.898 0.985 -0.12 0.12 0.17 0.696 -0.696 0 0.707 0.707 4497.dat
0 // gear: left hand
1 288 24.89 33.73 -9.898 0.985 0.12 -0.12 -0.17 0.696 -0.696 0 0.707 0.707 2586.dat
0 !SHOES Dark_Bluish_Grey iron
