0 Guardian - Level 5 Aegis
0 Name: guardian_L5.ldr
0 Author: Solo Leveling (generated by tools/build_ldr.py)
0 // head
1 14 0 -24 0 1 0 0 0 1 0 0 0 1 3626bp05.dat
0 // hair / helmet
1 297 0 -24 0 1 0 0 0 1 0 0 0 1 48493.dat
0 // torso
1 288 0 0 0 1 0 0 0 1 0 0 0 1 76382p2z.dat
0 // legs
1 288 0 32 0 1 0 0 0 1 0 0 0 1 3815c01.dat
0 // gear: neck
1 297 0 0 0 1 0 0 0 1 0 0 0 1 12618.dat
0 // gear: right hand
1 297 -24.89 33.73 -9.898 0.985 -0.12 0.12 0.17 0.696 -0.696 0 0.707 0.707 43899.dat
0 // gear: left hand
1 297 24.89 33.73 -9.898 0.985 0.12 -0.12 -0.17 0.696 -0.696 0 0.707 0.707 18836.dat
0 !SHOES Pearl_Gold gold
