0 Mentalist - Level 4 Oracle
0 Name: mentalist_L4.ldr
0 Author: Solo Leveling (generated by tools/build_ldr.py)
0 // head
1 14 0 -24 0 1 0 0 0 1 0 0 0 1 3626bp05.dat
0 // hair / helmet
1 31 0 -24 0 1 0 0 0 1 0 0 0 1 10048.dat
0 // torso
1 22 0 0 0 1 0 0 0 1 0 0 0 1 76382p5p.dat
0 // legs
1 22 0 32 0 1 0 0 0 1 0 0 0 1 3815c01.dat
0 // gear: neck
1 26 0 0 0 1 0 0 0 1 0 0 0 1 38301c01.dat
0 // gear: right hand
1 297 -24.89 33.73 -9.898 0.985 -0.12 0.12 0.17 0.696 -0.696 0 0.707 0.707 28681.dat
0 !SHOES Flat_Silver steel
