0 Shadow - Level 5 Sovereign
0 Name: shadow_L5.ldr
0 Author: Solo Leveling (generated by tools/build_ldr.py)
0 // head
1 14 0 -24 0 1 0 0 0 1 0 0 0 1 3626bp6v.dat
0 // hair / helmet
1 0 0 -24 0 1 0 0 0 1 0 0 0 1 30381.dat
0 // torso
1 0 0 0 0 1 0 0 0 1 0 0 0 1 76382pn6.dat
0 // legs
1 0 0 32 0 1 0 0 0 1 0 0 0 1 3815c01.dat
0 // gear: neck
1 0 0 0 0 1 0 0 0 1 0 0 0 1 20551c01.dat
0 // gear: right hand
1 43 -24.89 33.73 -9.898 0.985 -0.12 0.12 0.17 0.696 -0.696 0 0.707 0.707 21459.dat
0 // gear: left hand
1 43 24.89 33.73 -9.898 0.985 0.12 -0.12 -0.17 0.696 -0.696 0 0.707 0.707 21459.dat
0 !SHOES Black steel
