0 Warrior - Level 3 Warrior
0 Name: warrior_L3.ldr
0 Author: Solo Leveling (generated by tools/build_ldr.py)
0 // head
1 14 0 -24 0 1 0 0 0 1 0 0 0 1 3626bps6.dat
0 // hair / helmet
1 484 0 -24 0 1 0 0 0 1 0 0 0 1 20597.dat
0 // torso
1 272 0 0 0 1 0 0 0 1 0 0 0 1 76382p2p.dat
0 // legs
1 0 0 32 0 1 0 0 0 1 0 0 0 1 3815c01.dat
0 // gear: neck
1 148 0 0 0 1 0 0 0 1 0 0 0 1 11097.dat
0 // gear: right hand
1 179 -24.89 33.73 -9.898 0.985 -0.12 0.12 0.17 0.696 -0.696 0 0.707 0.707 59.dat
0 !SHOES Dark_Bluish_Grey iron
