0 Warrior - Level 2 Fighter
0 Name: warrior_L2.ldr
0 Author: Solo Leveling (generated by tools/build_ldr.py)
0 // head
1 14 0 -24 0 1 0 0 0 1 0 0 0 1 3626bps6.dat
0 // hair / helmet
1 484 0 -24 0 1 0 0 0 1 0 0 0 1 20597.dat
0 // torso
1 484 0 0 0 1 0 0 0 1 0 0 0 1 76382p45.dat
0 // legs
1 308 0 32 0 1 0 0 0 1 0 0 0 1 3815c01.dat
0 // gear: right hand
1 179 -24.89 33.73 -9.898 0.985 -0.12 0.12 0.17 0.696 -0.696 0 0.707 0.707 18034.dat
0 // gear: left hand
1 70 24.89 33.73 -9.898 0.985 0.12 -0.12 -0.17 0.696 -0.696 0 0.707 0.707 2586.dat
0 !SHOES Black leather
