0 Warrior - Level 4 Knight
0 Name: warrior_L4.ldr
0 Author: Solo Leveling (generated by tools/build_ldr.py)
0 // head
1 14 0 -24 0 1 0 0 0 1 0 0 0 1 3626bps6.dat
0 // hair / helmet
1 179 0 -24 0 1 0 0 0 1 0 0 0 1 48493.dat
0 // torso
1 0 0 0 0 1 0 0 0 1 0 0 0 1 76382p0009.dat
0 // legs
1 272 0 32 0 1 0 0 0 1 0 0 0 1 3815c01.dat
0 // gear: right hand
1 179 -24.89 33.73 -9.898 0.985 -0.12 0.12 0.17 0.696 -0.696 0 0.707 0.707 18031.dat
0 // gear: left hand
1 272 24.89 33.73 -9.898 0.985 0.12 -0.12 -0.17 0.696 -0.696 0 0.707 0.707 18836p41.dat
0 !SHOES Flat_Silver steel
