0 Warrior - Level 5 Champion
0 Name: warrior_L5.ldr
0 Author: Solo Leveling (generated by tools/build_ldr.py)
0 // head
1 14 0 -24 0 1 0 0 0 1 0 0 0 1 3626bps6.dat
0 // hair / helmet
1 297 0 -24 0 1 0 0 0 1 0 0 0 1 6122c01.dat
0 // torso
1 320 0 0 0 1 0 0 0 1 0 0 0 1 973p2l.dat
1 320 -15.552 9 0 0.985 -0.17 0 0.17 0.985 0 0 0 1 3818.dat
1 320 15.552 9 0 0.985 0.17 0 -0.17 0.985 0 0 0 1 3819.dat
1 14 -23.69 26.774 -9.898 0.985 -0.12 0.12 0.17 0.696 -0.696 0 0.707 0.707 3820.dat
1 14 23.69 26.774 -9.898 0.985 0.12 -0.12 -0.17 0.696 -0.696 0 0.707 0.707 3820.dat
0 // legs
1 320 0 32 0 1 0 0 0 1 0 0 0 1 3815c01.dat
0 // gear: neck
1 25 0 0 0 1 0 0 0 1 0 0 0 1 20551c01.dat
0 // gear: right hand
1 179 -24.89 33.73 -9.898 0.985 -0.12 0.12 0.17 0.696 -0.696 0 0.707 0.707 24108pe3.dat
0 !SHOES Pearl_Gold gold
