0 Wizard - Level 5 Sage
0 Name: wizard_L5.ldr
0 Author: Solo Leveling (generated by tools/build_ldr.py)
0 // head
1 14 0 -24 0 1 0 0 0 1 0 0 0 1 3626bp0i.dat
0 // hair / helmet
1 297 0 -24 0 1 0 0 0 1 0 0 0 1 17349.dat
0 // torso
1 272 0 0 0 1 0 0 0 1 0 0 0 1 76382p5p.dat
0 // legs
1 272 0 32 0 1 0 0 0 1 0 0 0 1 3815c01.dat
0 // gear: neck
1 272 0 0 0 1 0 0 0 1 0 0 0 1 20551c01.dat
0 // gear: right hand
1 297 -24.89 33.73 -9.898 0.985 -0.12 0.12 0.17 0.696 -0.696 0 0.707 0.707 2714a.dat
0 // gear: left hand
1 43 24.89 33.73 -9.898 0.985 0.12 -0.12 -0.17 0.696 -0.696 0 0.707 0.707 28681.dat
0 !SHOES Pearl_Gold gold
